<mxfile host="app.diagrams.net" modified="2022-06-17T12:27:54.434Z" agent="5.0 (Macintosh; Intel Mac OS X 10_15_7) AppleWebKit/605.1.15 (KHTML, like Gecko) Version/15.5 Safari/605.1.15" etag="Na6ur_qCOeB-mQNntZ3H" version="20.0.1" type="github">
  <diagram id="blvmo5UPrjpmmqZUix2r" name="Page-1">
    <mxGraphModel dx="770" dy="535" grid="1" gridSize="10" guides="1" tooltips="1" connect="1" arrows="1" fold="1" page="1" pageScale="1" pageWidth="1169" pageHeight="827" math="0" shadow="0">
      <root>
        <mxCell id="0" />
        <mxCell id="1" parent="0" />
        <mxCell id="MnECo-_hzbuP8dUtacvV-1" value="Linux/Unix" style="rounded=0;whiteSpace=wrap;html=1;sketch=1;fontFamily=Comic Sans MS;fontSize=14;fillColor=#f8cecc;strokeColor=#b85450;" vertex="1" parent="1">
          <mxGeometry x="30" y="364" width="510" height="100" as="geometry" />
        </mxCell>
        <mxCell id="MnECo-_hzbuP8dUtacvV-2" value="POSIX" style="rounded=0;whiteSpace=wrap;html=1;sketch=1;fontFamily=Comic Sans MS;fillColor=#f8cecc;strokeColor=#b85450;" vertex="1" parent="1">
          <mxGeometry x="30" y="314" width="510" height="40" as="geometry" />
        </mxCell>
        <mxCell id="MnECo-_hzbuP8dUtacvV-3" value="内核态" style="rounded=0;whiteSpace=wrap;html=1;sketch=1;fontFamily=Comic Sans MS;fillColor=#f8cecc;strokeColor=#b85450;" vertex="1" parent="1">
          <mxGeometry x="570" y="314" width="110" height="150" as="geometry" />
        </mxCell>
        <mxCell id="MnECo-_hzbuP8dUtacvV-4" value="C Std Library" style="rounded=0;whiteSpace=wrap;html=1;sketch=1;fontFamily=Comic Sans MS;fillColor=#dae8fc;strokeColor=#6c8ebf;" vertex="1" parent="1">
          <mxGeometry x="160" y="194" width="120" height="60" as="geometry" />
        </mxCell>
        <mxCell id="MnECo-_hzbuP8dUtacvV-5" value="Java Std Library" style="rounded=0;whiteSpace=wrap;html=1;sketch=1;fontFamily=Comic Sans MS;fillColor=#dae8fc;strokeColor=#6c8ebf;" vertex="1" parent="1">
          <mxGeometry x="290" y="194" width="120" height="60" as="geometry" />
        </mxCell>
        <mxCell id="MnECo-_hzbuP8dUtacvV-6" value="Go Std Library" style="rounded=0;whiteSpace=wrap;html=1;sketch=1;fontFamily=Comic Sans MS;fillColor=#dae8fc;strokeColor=#6c8ebf;" vertex="1" parent="1">
          <mxGeometry x="420" y="194" width="120" height="60" as="geometry" />
        </mxCell>
        <mxCell id="MnECo-_hzbuP8dUtacvV-7" value="Shell" style="rounded=0;whiteSpace=wrap;html=1;sketch=1;fontFamily=Comic Sans MS;" vertex="1" parent="1">
          <mxGeometry x="30" y="194" width="120" height="60" as="geometry" />
        </mxCell>
        <mxCell id="MnECo-_hzbuP8dUtacvV-8" value="用户态" style="rounded=0;whiteSpace=wrap;html=1;sketch=1;fontFamily=Comic Sans MS;fillColor=#dae8fc;strokeColor=#6c8ebf;" vertex="1" parent="1">
          <mxGeometry x="570" y="80" width="110" height="174" as="geometry" />
        </mxCell>
        <mxCell id="MnECo-_hzbuP8dUtacvV-9" value="C 应用" style="rounded=0;whiteSpace=wrap;html=1;sketch=1;fontFamily=Comic Sans MS;fillColor=#dae8fc;strokeColor=#6c8ebf;" vertex="1" parent="1">
          <mxGeometry x="160" y="80" width="120" height="60" as="geometry" />
        </mxCell>
        <mxCell id="MnECo-_hzbuP8dUtacvV-10" value="Java 应用" style="rounded=0;whiteSpace=wrap;html=1;sketch=1;fontFamily=Comic Sans MS;fillColor=#dae8fc;strokeColor=#6c8ebf;" vertex="1" parent="1">
          <mxGeometry x="290" y="80" width="120" height="60" as="geometry" />
        </mxCell>
        <mxCell id="MnECo-_hzbuP8dUtacvV-11" value="Go 应用" style="rounded=0;whiteSpace=wrap;html=1;sketch=1;fontFamily=Comic Sans MS;fillColor=#dae8fc;strokeColor=#6c8ebf;" vertex="1" parent="1">
          <mxGeometry x="420" y="80" width="120" height="60" as="geometry" />
        </mxCell>
        <mxCell id="MnECo-_hzbuP8dUtacvV-13" value="" style="endArrow=classic;html=1;sketch=1;fontFamily=Comic Sans MS;fontSize=14;curved=1;exitX=0.5;exitY=1;exitDx=0;exitDy=0;entryX=0.25;entryY=0;entryDx=0;entryDy=0;" edge="1" parent="1" source="MnECo-_hzbuP8dUtacvV-7" target="MnECo-_hzbuP8dUtacvV-2">
          <mxGeometry width="50" height="50" relative="1" as="geometry">
            <mxPoint x="90" y="204" as="sourcePoint" />
            <mxPoint x="140" y="154" as="targetPoint" />
          </mxGeometry>
        </mxCell>
        <mxCell id="MnECo-_hzbuP8dUtacvV-14" value="" style="endArrow=classic;html=1;sketch=1;fontFamily=Comic Sans MS;fontSize=14;curved=1;exitX=0.5;exitY=1;exitDx=0;exitDy=0;entryX=0.5;entryY=0;entryDx=0;entryDy=0;" edge="1" parent="1" source="MnECo-_hzbuP8dUtacvV-4" target="MnECo-_hzbuP8dUtacvV-2">
          <mxGeometry width="50" height="50" relative="1" as="geometry">
            <mxPoint x="370" y="344" as="sourcePoint" />
            <mxPoint x="420" y="294" as="targetPoint" />
          </mxGeometry>
        </mxCell>
        <mxCell id="MnECo-_hzbuP8dUtacvV-15" value="" style="endArrow=classic;html=1;sketch=1;fontFamily=Comic Sans MS;fontSize=14;curved=1;exitX=0.5;exitY=1;exitDx=0;exitDy=0;entryX=0.5;entryY=0;entryDx=0;entryDy=0;" edge="1" parent="1" source="MnECo-_hzbuP8dUtacvV-5" target="MnECo-_hzbuP8dUtacvV-2">
          <mxGeometry width="50" height="50" relative="1" as="geometry">
            <mxPoint x="420" y="314" as="sourcePoint" />
            <mxPoint x="470" y="264" as="targetPoint" />
          </mxGeometry>
        </mxCell>
        <mxCell id="MnECo-_hzbuP8dUtacvV-16" value="" style="endArrow=classic;html=1;sketch=1;fontFamily=Comic Sans MS;fontSize=14;curved=1;exitX=0.5;exitY=1;exitDx=0;exitDy=0;" edge="1" parent="1" source="MnECo-_hzbuP8dUtacvV-6">
          <mxGeometry width="50" height="50" relative="1" as="geometry">
            <mxPoint x="470" y="324" as="sourcePoint" />
            <mxPoint x="290" y="314" as="targetPoint" />
          </mxGeometry>
        </mxCell>
        <mxCell id="MnECo-_hzbuP8dUtacvV-17" value="" style="endArrow=classic;html=1;sketch=1;fontFamily=Comic Sans MS;fontSize=14;curved=1;exitX=0.5;exitY=1;exitDx=0;exitDy=0;entryX=0.5;entryY=0;entryDx=0;entryDy=0;" edge="1" parent="1" source="MnECo-_hzbuP8dUtacvV-9" target="MnECo-_hzbuP8dUtacvV-4">
          <mxGeometry width="50" height="50" relative="1" as="geometry">
            <mxPoint x="210" y="200" as="sourcePoint" />
            <mxPoint x="260" y="150" as="targetPoint" />
          </mxGeometry>
        </mxCell>
        <mxCell id="MnECo-_hzbuP8dUtacvV-18" value="" style="endArrow=classic;html=1;sketch=1;fontFamily=Comic Sans MS;fontSize=14;curved=1;exitX=0.5;exitY=1;exitDx=0;exitDy=0;entryX=0.5;entryY=0;entryDx=0;entryDy=0;" edge="1" parent="1" source="MnECo-_hzbuP8dUtacvV-10" target="MnECo-_hzbuP8dUtacvV-5">
          <mxGeometry width="50" height="50" relative="1" as="geometry">
            <mxPoint x="350" y="200" as="sourcePoint" />
            <mxPoint x="400" y="150" as="targetPoint" />
          </mxGeometry>
        </mxCell>
        <mxCell id="MnECo-_hzbuP8dUtacvV-19" value="" style="endArrow=classic;html=1;sketch=1;fontFamily=Comic Sans MS;fontSize=14;curved=1;exitX=0.5;exitY=1;exitDx=0;exitDy=0;entryX=0.5;entryY=0;entryDx=0;entryDy=0;" edge="1" parent="1" source="MnECo-_hzbuP8dUtacvV-11" target="MnECo-_hzbuP8dUtacvV-6">
          <mxGeometry width="50" height="50" relative="1" as="geometry">
            <mxPoint x="480" y="173.28932188134524" as="sourcePoint" />
            <mxPoint x="520" y="160" as="targetPoint" />
          </mxGeometry>
        </mxCell>
      </root>
    </mxGraphModel>
  </diagram>
</mxfile>
